<svg xmlns="http://www.w3.org/2000/svg" viewBox="0 0 100 100">
  <style>
    .background {
      fill: #031a43; /* TDS logo dark blue */
    }
    .triangles {
      fill: #1689ff; /* TDS logo accent blue */
    }
    @media (prefers-color-scheme: dark) {
      .background {
        fill: #031a43; /* Keep TDS dark blue background in dark mode */
      }
      .triangles {
        fill: #1689ff; /* Keep TDS accent blue for triangles in dark mode */
      }
    }
  </style>

  <!-- Circular Background -->
  <circle class="background" cx="50" cy="50" r="50"/>

  <!-- TDS Logo Triangles - Scaled and centered within circle with more breathing room -->
  <g transform="translate(50, 50) scale(0.15) translate(-188.5, -237.5)">
    <!-- Bottom Row Triangles -->
    <polygon class="triangles" points="324.76 252.39 196.6 474.36 248.63 474.36 376.78 252.39 324.76 252.39"/>
    <polygon class="triangles" points="239.29 252.39 111.14 474.36 163.16 474.36 291.32 252.39 239.29 252.39"/>
    <polygon class="triangles" points="153.83 252.39 25.67 474.36 77.7 474.36 205.86 252.39 153.83 252.39"/>

    <!-- Top Row Triangles -->
    <polygon class="triangles" points="299.08 0 170.93 221.97 222.95 221.97 351.11 0 299.08 0"/>
    <polygon class="triangles" points="213.62 0 85.46 221.97 137.49 221.97 265.65 0 213.62 0"/>
    <polygon class="triangles" points="128.16 0 0 221.97 52.03 221.97 180.18 0 128.16 0"/>
  </g>
</svg>